<?xml version="1.0" encoding="UTF-8" standalone="no" ?>
<!DOCTYPE svg PUBLIC "-//W3C//DTD SVG 1.1//EN" "http://www.w3.org/Graphics/SVG/1.1/DTD/svg11.dtd">
<svg xmlns="http://www.w3.org/2000/svg" xmlns:xlink="http://www.w3.org/1999/xlink" version="1.1" width="500" height="500" viewBox="0 0 500 500" xml:space="preserve">
<desc>Created with Fabric.js 3.6.3</desc>
<defs>
</defs>
<g transform="matrix(1 0 0 1 338.865 257.00100000000003)" style=""  ><path fill="#ffffff" opacity="1" d="M-121.42-12.23L-121.42 9.96L-102.59 9.96L-102.59 5.52L-116.98 5.52L-116.98-12.23Z"/><path fill="#ffffff" opacity="1" d="M-89.75 5.52L-89.75-7.79L-78.69-7.79L-78.69 5.52ZM-76.47 9.96L-74.28 7.77L-74.28-9.98L-76.47-12.23L-92.00-12.23L-94.19-9.98L-94.19 7.77L-92.00 9.96Z"/><path fill="#ffffff" opacity="1" d="M-64.93-12.23L-64.93 9.96L-46.10 9.96L-46.10 5.52L-60.49 5.52L-60.49-12.23Z"/><path fill="#ffffff" opacity="1" d="M-18.87 9.96L-18.87 5.52L-33.26 5.52L-33.26 1.11L-19.98 1.11L-19.98-3.32L-33.26-3.32L-33.26-7.79L-18.87-7.79L-18.87-12.23L-37.70-12.23L-37.70 9.96Z"/><path fill="#ffffff" opacity="1" d="M-5.40 9.96L-5.40-12.23L-9.84-12.23L-9.84 9.96Z"/><path fill="#ffffff" opacity="1" d="M23.86 9.96L23.86-12.23L19.45-12.23L19.45 2.54L8.39-12.23L3.95-12.23L3.95 9.96L8.39 9.96L8.39-4.85L19.45 9.96Z"/></g><g transform="matrix(1 0 0 1 325.5035084879995 290.7582499999999)" style=""  ><path fill="#ffffff" opacity="1" d="M-108.44 3.66L-105.26 3.66Q-105.08 3.66-104.97 3.54Q-104.87 3.42-104.87 3.26L-104.87 3.26Q-104.87 3.09-104.97 2.98Q-105.07 2.87-105.26 2.87L-105.26 2.87L-108.05 2.87L-108.05-3.90Q-108.05-4.10-108.17-4.20Q-108.29-4.31-108.44-4.31L-108.44-4.31Q-108.62-4.31-108.73-4.20Q-108.85-4.09-108.85-3.90L-108.85-3.90L-108.85 3.26Q-108.85 3.66-108.44 3.66L-108.44 3.66Z"/><path fill="#ffffff" opacity="1" d="M-95.94 2.06L-95.94 2.06L-95.94-2.71Q-95.94-3.38-96.41-3.84L-96.41-3.84Q-96.86-4.31-97.53-4.31L-97.53-4.31L-99.12-4.31Q-99.79-4.31-100.25-3.84Q-100.72-3.38-100.72-2.71L-100.72-2.71L-100.72 2.06Q-100.72 2.74-100.25 3.21L-100.25 3.21Q-99.79 3.66-99.12 3.66L-99.12 3.66L-97.53 3.66Q-96.86 3.66-96.41 3.21L-96.41 3.21Q-95.94 2.74-95.94 2.06ZM-96.74-2.71L-96.74 2.06Q-96.74 2.40-96.97 2.63Q-97.20 2.87-97.53 2.87L-97.53 2.87L-99.12 2.87Q-99.46 2.87-99.69 2.63Q-99.92 2.40-99.92 2.06L-99.92 2.06L-99.92-2.71Q-99.92-3.05-99.69-3.28Q-99.46-3.51-99.12-3.51L-99.12-3.51L-97.53-3.51Q-97.20-3.51-96.97-3.28Q-96.74-3.05-96.74-2.71L-96.74-2.71Z"/><path fill="#ffffff" opacity="1" d=""/><path fill="#ffffff" opacity="1" d="M-78.85 3.26L-78.85 3.26L-78.85-3.87Q-78.85-4.08-78.96-4.20Q-79.07-4.33-79.21-4.33L-79.21-4.33Q-79.45-4.33-79.60-4.08L-79.60-4.08L-81.65-0.65L-83.70-4.08Q-83.85-4.33-84.07-4.33L-84.07-4.33Q-84.22-4.33-84.33-4.20Q-84.44-4.08-84.44-3.87L-84.44-3.87L-84.44 3.26Q-84.44 3.45-84.32 3.55Q-84.20 3.66-84.04 3.66L-84.04 3.66Q-83.86 3.66-83.75 3.56Q-83.64 3.46-83.64 3.26L-83.64 3.26L-83.64-2.42L-81.99 0.33Q-81.83 0.58-81.65 0.58L-81.65 0.58Q-81.45 0.58-81.30 0.33L-81.30 0.33L-79.66-2.42L-79.66 3.26Q-79.66 3.45-79.53 3.55Q-79.41 3.66-79.26 3.66L-79.26 3.66Q-79.09 3.66-78.97 3.56Q-78.85 3.46-78.85 3.26Z"/><path fill="#ffffff" opacity="1" d="M-73.89 3.38L-73.32 1.66L-70.43 1.66L-69.86 3.38Q-69.81 3.55-69.66 3.62L-69.66 3.62Q-69.54 3.65-69.49 3.65L-69.49 3.65Q-69.33 3.65-69.21 3.54Q-69.08 3.44-69.08 3.28L-69.08 3.28Q-69.08 3.22-69.10 3.12L-69.10 3.12L-71.50-4.04Q-71.61-4.38-71.87-4.38L-71.87-4.38Q-72.12-4.38-72.25-4.04L-72.25-4.04L-74.64 3.12Q-74.67 3.19-74.67 3.28L-74.67 3.28Q-74.67 3.44-74.54 3.54Q-74.41 3.65-74.26 3.65L-74.26 3.65Q-73.97 3.65-73.89 3.38L-73.89 3.38ZM-71.87-2.67L-70.70 0.85L-73.05 0.85L-71.87-2.67Z"/><path fill="#ffffff" opacity="1" d="M-60.76-3.63L-60.76-3.63Q-61.21-3.96-61.76-4.13Q-62.31-4.31-62.90-4.31L-62.90-4.31Q-63.72-4.31-64.34-3.98L-64.34-3.98Q-64.79-3.75-65.01-3.37Q-65.23-2.98-65.23-2.54L-65.23-2.54Q-65.23-2.19-65.11-1.90Q-64.99-1.61-64.70-1.43L-64.70-1.43L-61.73 0.75Q-61.49 0.90-61.37 1.17Q-61.25 1.43-61.25 1.73L-61.25 1.73Q-61.25 1.99-61.36 2.22Q-61.47 2.45-61.69 2.56L-61.69 2.56Q-62.33 2.89-62.95 2.89L-62.95 2.89Q-63.37 2.89-63.78 2.75Q-64.20 2.60-64.64 2.31L-64.64 2.31Q-64.77 2.24-64.86 2.24L-64.86 2.24Q-65.04 2.24-65.15 2.37Q-65.26 2.49-65.26 2.66L-65.26 2.66Q-65.26 2.87-65.07 2.98L-65.07 2.98Q-64.51 3.35-64.02 3.52Q-63.52 3.69-62.96 3.69L-62.96 3.69Q-62.55 3.69-62.15 3.60Q-61.75 3.50-61.33 3.28L-61.33 3.28Q-60.90 3.04-60.69 2.63Q-60.48 2.22-60.48 1.71L-60.48 1.71Q-60.48 1.22-60.68 0.79Q-60.89 0.35-61.28 0.09L-61.28 0.09L-64.23-2.10Q-64.46-2.26-64.46-2.54L-64.46-2.54Q-64.46-2.75-64.34-2.95Q-64.21-3.14-63.98-3.27L-63.98-3.27Q-63.50-3.53-62.90-3.53L-62.90-3.53Q-62.00-3.53-61.21-2.98L-61.21-2.98Q-61.12-2.90-60.98-2.90L-60.98-2.90Q-60.82-2.90-60.70-3.03Q-60.59-3.16-60.59-3.32L-60.59-3.32Q-60.59-3.40-60.63-3.49Q-60.67-3.57-60.76-3.63Z"/><path fill="#ffffff" opacity="1" d=""/><path fill="#ffffff" opacity="1" d="M-46.22-1.12L-48.21-1.12L-48.21-3.51L-45.42-3.51Q-45.23-3.51-45.13-3.63Q-45.02-3.75-45.02-3.90L-45.02-3.90Q-45.02-4.08-45.12-4.19Q-45.22-4.31-45.42-4.31L-45.42-4.31L-48.61-4.31Q-49.02-4.31-49.02-3.90L-49.02-3.90L-49.02 3.29Q-49.02 3.66-48.61 3.66L-48.61 3.66L-45.42 3.66Q-45.23 3.66-45.13 3.54Q-45.02 3.42-45.02 3.26L-45.02 3.26Q-45.02 3.09-45.12 2.98Q-45.22 2.87-45.42 2.87L-45.42 2.87L-48.21 2.87L-48.21-0.32L-46.22-0.32Q-46.02-0.32-45.92-0.44Q-45.82-0.56-45.82-0.72L-45.82-0.72Q-45.82-0.90-45.92-1.01Q-46.02-1.12-46.22-1.12L-46.22-1.12Z"/><path fill="#ffffff" opacity="1" d="M-36.11 3.22L-36.11 3.22L-36.11-3.90Q-36.11-4.10-36.23-4.20Q-36.35-4.31-36.50-4.31L-36.50-4.31Q-36.68-4.31-36.80-4.20Q-36.91-4.09-36.91-3.90L-36.91-3.90L-36.91 1.68L-40.13-4.05Q-40.28-4.31-40.51-4.31L-40.51-4.31Q-40.66-4.31-40.77-4.19Q-40.89-4.08-40.89-3.87L-40.89-3.87L-40.89 3.26Q-40.89 3.45-40.76 3.55Q-40.64 3.66-40.48 3.66L-40.48 3.66Q-40.30 3.66-40.19 3.56Q-40.08 3.46-40.08 3.26L-40.08 3.26L-40.08-2.32L-36.85 3.42Q-36.71 3.67-36.48 3.67L-36.48 3.67Q-36.33 3.67-36.22 3.54Q-36.11 3.42-36.11 3.22Z"/><path fill="#ffffff" opacity="1" d="M-31.54-3.51L-29.96-3.51L-29.96 3.26Q-29.96 3.45-29.84 3.55Q-29.71 3.66-29.56 3.66L-29.56 3.66Q-29.39 3.66-29.27 3.56Q-29.15 3.46-29.15 3.26L-29.15 3.26L-29.15-3.51L-27.57-3.51Q-27.37-3.51-27.27-3.63Q-27.17-3.75-27.17-3.90L-27.17-3.90Q-27.17-4.08-27.27-4.19Q-27.37-4.31-27.57-4.31L-27.57-4.31L-31.54-4.31Q-31.74-4.31-31.84-4.19Q-31.95-4.06-31.95-3.90L-31.95-3.90Q-31.95-3.74-31.84-3.62Q-31.73-3.51-31.54-3.51L-31.54-3.51Z"/><path fill="#ffffff" opacity="1" d="M-19.82-0.32L-22.21-0.32L-22.21-3.51L-19.82-3.51Q-19.50-3.51-19.26-3.28Q-19.03-3.05-19.03-2.71L-19.03-2.71L-19.03-1.12Q-19.03-0.78-19.26-0.55Q-19.50-0.32-19.82-0.32L-19.82-0.32ZM-18.30 3.04L-19.90 0.48L-19.82 0.48Q-19.16 0.48-18.70 0.01L-18.70 0.01Q-18.24-0.45-18.24-1.12L-18.24-1.12L-18.24-2.71Q-18.24-3.38-18.70-3.84L-18.70-3.84Q-19.16-4.31-19.82-4.31L-19.82-4.31L-22.61-4.31Q-23.01-4.31-23.01-3.90L-23.01-3.90L-23.01 3.26Q-23.01 3.45-22.89 3.55Q-22.77 3.66-22.61 3.66L-22.61 3.66Q-22.43 3.66-22.32 3.56Q-22.21 3.46-22.21 3.26L-22.21 3.26L-22.21 0.48L-20.85 0.48L-18.96 3.47Q-18.86 3.66-18.65 3.66L-18.65 3.66Q-18.48 3.66-18.36 3.54Q-18.24 3.43-18.24 3.28L-18.24 3.28Q-18.24 3.16-18.30 3.04L-18.30 3.04Z"/><path fill="#ffffff" opacity="1" d="M-11.28-1.12L-13.27-1.12L-13.27-3.51L-10.48-3.51Q-10.29-3.51-10.19-3.63Q-10.08-3.75-10.08-3.90L-10.08-3.90Q-10.08-4.08-10.18-4.19Q-10.28-4.31-10.48-4.31L-10.48-4.31L-13.67-4.31Q-14.08-4.31-14.08-3.90L-14.08-3.90L-14.08 3.29Q-14.08 3.66-13.67 3.66L-13.67 3.66L-10.48 3.66Q-10.29 3.66-10.19 3.54Q-10.08 3.42-10.08 3.26L-10.08 3.26Q-10.08 3.09-10.18 2.98Q-10.28 2.87-10.48 2.87L-10.48 2.87L-13.27 2.87L-13.27-0.32L-11.28-0.32Q-11.08-0.32-10.99-0.44Q-10.89-0.56-10.89-0.72L-10.89-0.72Q-10.89-0.90-10.99-1.01Q-11.08-1.12-11.28-1.12L-11.28-1.12Z"/><path fill="#ffffff" opacity="1" d="M-5.54-3.51L-3.95-3.51L-3.95 3.26Q-3.95 3.45-3.83 3.55Q-3.71 3.66-3.56 3.66L-3.56 3.66Q-3.38 3.66-3.27 3.56Q-3.15 3.46-3.15 3.26L-3.15 3.26L-3.15-3.51L-1.57-3.51Q-1.37-3.51-1.27-3.63Q-1.17-3.75-1.17-3.90L-1.17-3.90Q-1.17-4.08-1.27-4.19Q-1.37-4.31-1.57-4.31L-1.57-4.31L-5.54-4.31Q-5.74-4.31-5.84-4.19Q-5.95-4.06-5.95-3.90L-5.95-3.90Q-5.95-3.74-5.84-3.62Q-5.73-3.51-5.54-3.51L-5.54-3.51Z"/><path fill="#ffffff" opacity="1" d="M5.78-1.12L3.79-1.12L3.79-3.51L6.59-3.51Q6.77-3.51 6.88-3.63Q6.98-3.75 6.98-3.90L6.98-3.90Q6.98-4.08 6.89-4.19Q6.79-4.31 6.59-4.31L6.59-4.31L3.40-4.31Q2.99-4.31 2.99-3.90L2.99-3.90L2.99 3.29Q2.99 3.66 3.40 3.66L3.40 3.66L6.59 3.66Q6.77 3.66 6.88 3.54Q6.98 3.42 6.98 3.26L6.98 3.26Q6.98 3.09 6.89 2.98Q6.79 2.87 6.59 2.87L6.59 2.87L3.79 2.87L3.79-0.32L5.78-0.32Q5.98-0.32 6.08-0.44Q6.18-0.56 6.18-0.72L6.18-0.72Q6.18-0.90 6.08-1.01Q5.98-1.12 5.78-1.12L5.78-1.12Z"/><path fill="#ffffff" opacity="1" d="M15.90 3.22L15.90 3.22L15.90-3.90Q15.90-4.10 15.77-4.20Q15.65-4.31 15.50-4.31L15.50-4.31Q15.33-4.31 15.21-4.20Q15.09-4.09 15.09-3.90L15.09-3.90L15.09 1.68L11.88-4.05Q11.73-4.31 11.49-4.31L11.49-4.31Q11.34-4.31 11.23-4.19Q11.12-4.08 11.12-3.87L11.12-3.87L11.12 3.26Q11.12 3.45 11.24 3.55Q11.37 3.66 11.53 3.66L11.53 3.66Q11.70 3.66 11.81 3.56Q11.92 3.46 11.92 3.26L11.92 3.26L11.92-2.32L15.15 3.42Q15.29 3.67 15.52 3.67L15.52 3.67Q15.68 3.67 15.79 3.54Q15.90 3.42 15.90 3.22Z"/><path fill="#ffffff" opacity="1" d="M20.86 3.26L20.86 3.26L20.86-3.90Q20.86-4.10 20.74-4.20Q20.62-4.31 20.46-4.31L20.46-4.31Q20.29-4.31 20.17-4.20Q20.06-4.09 20.06-3.90L20.06-3.90L20.06 3.26Q20.06 3.45 20.18 3.55Q20.30 3.66 20.46 3.66L20.46 3.66Q20.64 3.66 20.75 3.56Q20.86 3.46 20.86 3.26Z"/><path fill="#ffffff" opacity="1" d="M29.78 2.06L29.78 2.06L29.78-2.71Q29.78-3.38 29.32-3.84L29.32-3.84Q28.86-4.31 28.20-4.31L28.20-4.31L25.41-4.31Q25.01-4.31 25.01-3.90L25.01-3.90L25.01 3.26Q25.01 3.66 25.41 3.66L25.41 3.66L28.20 3.66Q28.86 3.66 29.32 3.21L29.32 3.21Q29.78 2.74 29.78 2.06ZM28.99-2.71L28.99 2.06Q28.99 2.40 28.76 2.63Q28.53 2.87 28.20 2.87L28.20 2.87L25.81 2.87L25.81-3.51L28.20-3.51Q28.53-3.51 28.76-3.28Q28.99-3.05 28.99-2.71L28.99-2.71Z"/><path fill="#ffffff" opacity="1" d="M38.72 2.06L38.72 2.06L38.72-2.71Q38.72-3.38 38.25-3.84L38.25-3.84Q37.80-4.31 37.13-4.31L37.13-4.31L35.54-4.31Q34.87-4.31 34.41-3.84Q33.94-3.38 33.94-2.71L33.94-2.71L33.94 2.06Q33.94 2.74 34.41 3.21L34.41 3.21Q34.87 3.66 35.54 3.66L35.54 3.66L37.13 3.66Q37.80 3.66 38.25 3.21L38.25 3.21Q38.72 2.74 38.72 2.06ZM37.93-2.71L37.93 2.06Q37.93 2.40 37.69 2.63Q37.46 2.87 37.13 2.87L37.13 2.87L35.54 2.87Q35.20 2.87 34.97 2.63Q34.75 2.40 34.75 2.06L34.75 2.06L34.75-2.71Q34.75-3.05 34.97-3.28Q35.20-3.51 35.54-3.51L35.54-3.51L37.13-3.51Q37.46-3.51 37.69-3.28Q37.93-3.05 37.93-2.71L37.93-2.71Z"/></g><g transform="matrix(0.66 0 0 0.66 149.46900000000002 253.262)"  >
<g style=""   >
		<g transform="matrix(1 0 0 1 -52.60000000000001 -52.55)"  >
<rect style="stroke: none; stroke-width: 1; stroke-dasharray: none; stroke-linecap: butt; stroke-dashoffset: 0; stroke-linejoin: miter; stroke-miterlimit: 4; fill: rgb(246,88,67); fill-rule: nonzero; opacity: 1;"  x="-14.05" y="-14.05" rx="0" ry="0" width="28.1" height="28.1" />
</g>
		<g transform="matrix(1 0 0 1 54.5 22.95)"  >
<rect style="stroke: none; stroke-width: 1; stroke-dasharray: none; stroke-linecap: butt; stroke-dashoffset: 0; stroke-linejoin: miter; stroke-miterlimit: 4; fill: rgb(247,209,30); fill-rule: nonzero; opacity: 1;"  x="-12.25" y="-12.25" rx="0" ry="0" width="24.5" height="24.5" />
</g>
		<g transform="matrix(1 0 0 1 32.7 -17.05)"  >
<rect style="stroke: none; stroke-width: 1; stroke-dasharray: none; stroke-linecap: butt; stroke-dashoffset: 0; stroke-linejoin: miter; stroke-miterlimit: 4; fill: rgb(63,181,191); fill-rule: nonzero; opacity: 1;"  x="-9.45" y="-13.05" rx="0" ry="0" width="18.9" height="26.1" />
</g>
		<g transform="matrix(1 0 0 1 57.6 57.95)"  >
<rect style="stroke: none; stroke-width: 1; stroke-dasharray: none; stroke-linecap: butt; stroke-dashoffset: 0; stroke-linejoin: miter; stroke-miterlimit: 4; fill: rgb(246,88,67); fill-rule: nonzero; opacity: 1;"  x="-8.85" y="-8.85" rx="0" ry="0" width="17.7" height="17.7" />
</g>
		<g transform="matrix(1 0 0 1 -51.300000000000004 -3.9499999999999993)"  >
<rect style="stroke: none; stroke-width: 1; stroke-dasharray: none; stroke-linecap: butt; stroke-dashoffset: 0; stroke-linejoin: miter; stroke-miterlimit: 4; fill: rgb(247,209,30); fill-rule: nonzero; opacity: 1;"  x="-15.35" y="-19.85" rx="0" ry="0" width="30.7" height="39.7" />
</g>
		<g transform="matrix(1 0 0 1 -5.550000000000001 8.299999999999999)"  >
<rect style="stroke: none; stroke-width: 1; stroke-dasharray: none; stroke-linecap: butt; stroke-dashoffset: 0; stroke-linejoin: miter; stroke-miterlimit: 4; fill: rgb(246,88,67); fill-rule: nonzero; opacity: 1;"  x="-15.9" y="-22.4" rx="0" ry="0" width="31.8" height="44.8" />
</g>
		<g transform="matrix(1 0 0 1 54.35 -54.49999999999999)"  >
<rect style="stroke: none; stroke-width: 1; stroke-dasharray: none; stroke-linecap: butt; stroke-dashoffset: 0; stroke-linejoin: miter; stroke-miterlimit: 4; fill: rgb(246,88,67); fill-rule: nonzero; opacity: 1;"  x="-12.1" y="-12.1" rx="0" ry="0" width="24.2" height="24.2" />
</g>
		<g transform="matrix(1 0 0 1 -13.350000000000001 57.95)"  >
<rect style="stroke: none; stroke-width: 1; stroke-dasharray: none; stroke-linecap: butt; stroke-dashoffset: 0; stroke-linejoin: miter; stroke-miterlimit: 4; fill: rgb(247,209,30); fill-rule: nonzero; opacity: 1;"  x="-20" y="-8.85" rx="0" ry="0" width="40" height="17.7" />
</g>
		<g transform="matrix(1 0 0 1 2.549999999999999 -54.5)"  >
<rect style="stroke: none; stroke-width: 1; stroke-dasharray: none; stroke-linecap: butt; stroke-dashoffset: 0; stroke-linejoin: miter; stroke-miterlimit: 4; fill: rgb(247,209,30); fill-rule: nonzero; opacity: 1;"  x="-12.2" y="-12.2" rx="0" ry="0" width="24.4" height="24.4" />
</g>
		<g transform="matrix(1 0 0 1 -59.650000000000006 53.3)"  >
<rect style="stroke: none; stroke-width: 1; stroke-dasharray: none; stroke-linecap: butt; stroke-dashoffset: 0; stroke-linejoin: miter; stroke-miterlimit: 4; fill: rgb(63,181,191); fill-rule: nonzero; opacity: 1;"  x="-7" y="-13.4" rx="0" ry="0" width="14" height="26.8" />
</g>
		<g transform="matrix(1 0 0 1 62.9 -14.35)"  >
<rect style="stroke: none; stroke-width: 1; stroke-dasharray: none; stroke-linecap: butt; stroke-dashoffset: 0; stroke-linejoin: miter; stroke-miterlimit: 4; fill: rgb(247,209,30); fill-rule: nonzero; opacity: 1;"  x="-3.55" y="-7.35" rx="0" ry="0" width="7.1" height="14.7" />
</g>
		<g transform="matrix(1 0 0 1 25.9 61.45)"  >
<rect style="stroke: none; stroke-width: 1; stroke-dasharray: none; stroke-linecap: butt; stroke-dashoffset: 0; stroke-linejoin: miter; stroke-miterlimit: 4; fill: rgb(63,181,191); fill-rule: nonzero; opacity: 1;"  x="-5.25" y="-5.25" rx="0" ry="0" width="10.5" height="10.5" />
</g>
</g>
</g>
</svg>